<mxfile host="app.diagrams.net" agent="Mozilla/5.0 (Macintosh; Intel Mac OS X 10_15_7) AppleWebKit/537.36 (KHTML, like Gecko) Chrome/141.0.0.0 Safari/537.36" version="28.2.5">
  <diagram name="Page-1" id="1_D92-EaP17iyijhIUG6">
    <mxGraphModel dx="1426" dy="824" grid="1" gridSize="10" guides="1" tooltips="1" connect="1" arrows="1" fold="1" page="1" pageScale="1" pageWidth="1654" pageHeight="1169" math="0" shadow="0">
      <root>
        <mxCell id="0" />
        <mxCell id="1" parent="0" />
        <mxCell id="Rk58RBNGZsbwi6n3KVpS-1" value="LogProcessor" style="swimlane;whiteSpace=wrap;html=1;" vertex="1" parent="1">
          <mxGeometry x="580" y="210" width="200" height="60" as="geometry" />
        </mxCell>
        <mxCell id="Rk58RBNGZsbwi6n3KVpS-2" value="InfoLogProcessor" style="swimlane;whiteSpace=wrap;html=1;" vertex="1" parent="1">
          <mxGeometry x="290" y="360" width="200" height="50" as="geometry" />
        </mxCell>
        <mxCell id="Rk58RBNGZsbwi6n3KVpS-3" value="ErrorLogProcessor" style="swimlane;whiteSpace=wrap;html=1;" vertex="1" parent="1">
          <mxGeometry x="860" y="360" width="200" height="50" as="geometry" />
        </mxCell>
        <mxCell id="Rk58RBNGZsbwi6n3KVpS-4" value="DebugLogProcessor" style="swimlane;whiteSpace=wrap;html=1;" vertex="1" parent="1">
          <mxGeometry x="580" y="360" width="200" height="50" as="geometry" />
        </mxCell>
        <mxCell id="Rk58RBNGZsbwi6n3KVpS-5" value="" style="endArrow=classic;html=1;rounded=0;entryX=0.5;entryY=1;entryDx=0;entryDy=0;exitX=0.5;exitY=0;exitDx=0;exitDy=0;" edge="1" parent="1" source="Rk58RBNGZsbwi6n3KVpS-2" target="Rk58RBNGZsbwi6n3KVpS-1">
          <mxGeometry relative="1" as="geometry">
            <mxPoint x="230" y="300" as="sourcePoint" />
            <mxPoint x="330" y="300" as="targetPoint" />
          </mxGeometry>
        </mxCell>
        <mxCell id="Rk58RBNGZsbwi6n3KVpS-6" value="IS-A" style="edgeLabel;resizable=0;html=1;;align=center;verticalAlign=middle;" connectable="0" vertex="1" parent="Rk58RBNGZsbwi6n3KVpS-5">
          <mxGeometry relative="1" as="geometry" />
        </mxCell>
        <mxCell id="Rk58RBNGZsbwi6n3KVpS-7" value="" style="endArrow=classic;html=1;rounded=0;entryX=0.5;entryY=1;entryDx=0;entryDy=0;exitX=0.5;exitY=0;exitDx=0;exitDy=0;" edge="1" parent="1" source="Rk58RBNGZsbwi6n3KVpS-4" target="Rk58RBNGZsbwi6n3KVpS-1">
          <mxGeometry relative="1" as="geometry">
            <mxPoint x="490" y="630" as="sourcePoint" />
            <mxPoint x="590" y="630" as="targetPoint" />
          </mxGeometry>
        </mxCell>
        <mxCell id="Rk58RBNGZsbwi6n3KVpS-8" value="IS-A" style="edgeLabel;resizable=0;html=1;;align=center;verticalAlign=middle;" connectable="0" vertex="1" parent="Rk58RBNGZsbwi6n3KVpS-7">
          <mxGeometry relative="1" as="geometry" />
        </mxCell>
        <mxCell id="Rk58RBNGZsbwi6n3KVpS-9" value="" style="endArrow=classic;html=1;rounded=0;exitX=0.5;exitY=0;exitDx=0;exitDy=0;" edge="1" parent="1" source="Rk58RBNGZsbwi6n3KVpS-3">
          <mxGeometry relative="1" as="geometry">
            <mxPoint x="1020" y="280" as="sourcePoint" />
            <mxPoint x="680" y="270" as="targetPoint" />
          </mxGeometry>
        </mxCell>
        <mxCell id="Rk58RBNGZsbwi6n3KVpS-10" value="IS-A" style="edgeLabel;resizable=0;html=1;;align=center;verticalAlign=middle;" connectable="0" vertex="1" parent="Rk58RBNGZsbwi6n3KVpS-9">
          <mxGeometry relative="1" as="geometry" />
        </mxCell>
        <mxCell id="Rk58RBNGZsbwi6n3KVpS-11" value="" style="endArrow=classic;html=1;rounded=0;exitX=1;exitY=0.5;exitDx=0;exitDy=0;entryX=1;entryY=0;entryDx=0;entryDy=0;" edge="1" parent="1" source="Rk58RBNGZsbwi6n3KVpS-1" target="Rk58RBNGZsbwi6n3KVpS-1">
          <mxGeometry width="50" height="50" relative="1" as="geometry">
            <mxPoint x="870" y="260" as="sourcePoint" />
            <mxPoint x="760" y="160" as="targetPoint" />
            <Array as="points">
              <mxPoint x="920" y="240" />
              <mxPoint x="920" y="160" />
              <mxPoint x="780" y="160" />
            </Array>
          </mxGeometry>
        </mxCell>
        <mxCell id="Rk58RBNGZsbwi6n3KVpS-13" value="NextLogProcessor" style="edgeLabel;html=1;align=center;verticalAlign=middle;resizable=0;points=[];" vertex="1" connectable="0" parent="Rk58RBNGZsbwi6n3KVpS-11">
          <mxGeometry x="0.4683" y="2" relative="1" as="geometry">
            <mxPoint x="12" y="-3" as="offset" />
          </mxGeometry>
        </mxCell>
        <mxCell id="Rk58RBNGZsbwi6n3KVpS-14" value="Main" style="swimlane;whiteSpace=wrap;html=1;" vertex="1" parent="1">
          <mxGeometry x="120" y="210" width="200" height="60" as="geometry" />
        </mxCell>
        <mxCell id="Rk58RBNGZsbwi6n3KVpS-15" value="" style="endArrow=classic;html=1;rounded=0;exitX=1;exitY=0.5;exitDx=0;exitDy=0;entryX=0;entryY=0.5;entryDx=0;entryDy=0;" edge="1" parent="1" source="Rk58RBNGZsbwi6n3KVpS-14" target="Rk58RBNGZsbwi6n3KVpS-1">
          <mxGeometry relative="1" as="geometry">
            <mxPoint x="340" y="250" as="sourcePoint" />
            <mxPoint x="440" y="250" as="targetPoint" />
          </mxGeometry>
        </mxCell>
        <mxCell id="Rk58RBNGZsbwi6n3KVpS-16" value="HAS-A" style="edgeLabel;resizable=0;html=1;;align=center;verticalAlign=middle;" connectable="0" vertex="1" parent="Rk58RBNGZsbwi6n3KVpS-15">
          <mxGeometry relative="1" as="geometry" />
        </mxCell>
      </root>
    </mxGraphModel>
  </diagram>
</mxfile>
